[IMG]http://i.imgur.com/V0MM6.jpg[/IMG]
[code]
Rise.of.the.Guardians.2012.TS.XVID-26K
 
http://uk.imdb.com/title/tt1446192/

Plot:
When the evil spirit Pitch launches an assault on Earth, the Immortal Guardians team up to protect the innocence 

of children all around the world.

Sources - Audio-echo....Thanks :P
          VIDEO-russian/tommiecook.....Thanks :P
          Subs-N/A....
Video
ID                                       : 0
Format                                   : MPEG-4 Visual
Format profile                           : Advanced Simple@L5
Format settings, BVOP                    : 2
Format settings, QPel                    : No
Format settings, GMC                     : No warppoints
Format settings, Matrix                  : Default (H.263)
Muxing mode                              : Packed bitstream
Codec ID                                 : XVID
Codec ID/Hint                            : XviD
Duration                                 : 1h 28mn
Bit rate                                 : 1 495 Kbps
Width                                    : 720 pixels
Height                                   : 320 pixels
Display aspect ratio                     : 2.25:1
Frame rate                               : 25.000 fps
Color space                              : YUV
Chroma subsampling                       : 4:2:0
Bit depth                                : 8 bits
Scan type                                : Progressive
Compression mode                         : Lossy
Bits/(Pixel*Frame)                       : 0.260
Stream size                              : 942 MiB (92%)
Writing library                          : XviD 64

Audio
ID                                       : 1
Format                                   : MPEG Audio
Format version                           : Version 1
Format profile                           : Layer 3
Codec ID                                 : 55
Codec ID/Hint                            : MP3
Duration                                 : 1h 28mn
Bit rate mode                            : Constant
Bit rate                                 : 128 Kbps
Channel(s)                               : 2 channels
Sampling rate                            : 48.0 KHz
Compression mode                         : Lossy
Delay relative to video                  : 8s 950ms
Stream size                              : 80.7 MiB (8%)
Alignment                                : Split accross interleaves
Interleave, duration                     : 16364 ms (409.10 video frames)


Notes -
ran a few filters the video is a bit blurry in place... came out good enough to watch with line audio... enjoy 

until something better comes out.

[/code]

Screens:
[IMG]http://i.imgur.com/DJpm1.png[/IMG]
[IMG]http://i.imgur.com/biA1o.png[/IMG]
[IMG]http://i.imgur.com/40Utg.png[/IMG]
[IMG]http://s6.postimage.org/mfl78ijq9/vlcsnap_2012_11_30_19h30m14s175.png[/IMG]
[IMG]http://s6.postimage.org/lrccpkl0h/vlcsnap_2012_11_30_19h30m56s82.png[/IMG]
[IMG]http://s6.postimage.org/bvb9pxf8h/vlcsnap_2012_11_30_19h31m17s42.png[/IMG]

Greetz:
XtremeEncode|CM8||meggafast|RX|VISION|HDSCENE|xTriLL|DTRG|CRYS|BIDA|RX|REFILL|INSPiRAL|AXED|HOPE|Anonymous|NOIR|

Blackjesus|Gabroo Punjab Deh|UNiQUE|DQ1|RESiSTANCE|HS||LEGION|STN|BOBBYBLUE|LIFT

To all the people who have helped me  you know who you are

Anything to offer email us @: 26k@hushmail.me
<<bullying has to be stopped now!>>